<?xml version="1.0" encoding="UTF-8" standalone="no"?>
<!-- Created with Inkscape (http://www.inkscape.org/) -->

<svg
   xmlns:svg="http://www.w3.org/2000/svg"
   xmlns="http://www.w3.org/2000/svg"
   version="1.1"
   width="55"
   height="55"
   id="svg2">
  <defs
     id="defs4" />
  <path
     d="m 11.769068,18.527542 a 0.93220341,0.93220341 0 1 1 -1.8644069,0 0.93220341,0.93220341 0 1 1 1.8644069,0 z"
     transform="matrix(0.91650485,0,0,0.91650485,17.567961,16.019417)"
     id="path3592"
     style="fill:#ffffff;fill-opacity:1;stroke:#ffffff;stroke-width:2.5;stroke-linecap:round;stroke-linejoin:round;stroke-miterlimit:4;stroke-opacity:1;stroke-dasharray:none" />
  <path
     d="m 11.769068,18.527542 a 0.93220341,0.93220341 0 1 1 -1.8644069,0 0.93220341,0.93220341 0 1 1 1.8644069,0 z"
     transform="matrix(0.91650485,0,0,0.91650485,7.5679612,16.019418)"
     id="path3592-3"
     style="fill:#808284;fill-opacity:1;stroke:#808284;stroke-width:2.5;stroke-linecap:round;stroke-linejoin:round;stroke-miterlimit:4;stroke-opacity:1;stroke-dasharray:none" />
  <path
     d="m 11.769068,18.527542 a 0.93220341,0.93220341 0 1 1 -1.8644069,0 0.93220341,0.93220341 0 1 1 1.8644069,0 z"
     transform="matrix(0.91650485,0,0,0.91650485,27.567961,16.019417)"
     id="path3592-1"
     style="fill:#808284;fill-opacity:1;stroke:#808284;stroke-width:2.5;stroke-linecap:round;stroke-linejoin:round;stroke-miterlimit:4;stroke-opacity:1;stroke-dasharray:none" />
  <path
     d="m 11.769068,18.527542 a 0.93220341,0.93220341 0 1 1 -1.8644069,0 0.93220341,0.93220341 0 1 1 1.8644069,0 z"
     transform="matrix(0.91650485,0,0,0.91650485,-2.4320388,16.019418)"
     id="path3592-3-5"
     style="fill:#808284;fill-opacity:1;stroke:#808284;stroke-width:2.5;stroke-linecap:round;stroke-linejoin:round;stroke-miterlimit:4;stroke-opacity:1;stroke-dasharray:none" />
  <path
     d="m 11.769068,18.527542 a 0.93220341,0.93220341 0 1 1 -1.8644069,0 0.93220341,0.93220341 0 1 1 1.8644069,0 z"
     transform="matrix(0.91650485,0,0,0.91650485,37.567961,16.019417)"
     id="path3592-1-4"
     style="fill:#808284;fill-opacity:1;stroke:#808284;stroke-width:2.5;stroke-linecap:round;stroke-linejoin:round;stroke-miterlimit:4;stroke-opacity:1;stroke-dasharray:none" />
  <path
     d="m 11.769068,18.527542 a 0.93220341,0.93220341 0 1 1 -1.8644069,0 0.93220341,0.93220341 0 1 1 1.8644069,0 z"
     transform="matrix(0.45825242,0,0,0.45825242,17.533981,25.509708)"
     id="path3592-5"
     style="fill:#808284;fill-opacity:1;stroke:#808284;stroke-width:2.5;stroke-linecap:round;stroke-linejoin:round;stroke-miterlimit:4;stroke-opacity:1;stroke-dasharray:none" />
  <path
     d="m 11.769068,18.527542 a 0.93220341,0.93220341 0 1 1 -1.8644069,0 0.93220341,0.93220341 0 1 1 1.8644069,0 z"
     transform="matrix(0.45825242,0,0,0.45825242,7.5339806,25.509708)"
     id="path3592-5-4"
     style="fill:#808284;fill-opacity:1;stroke:#808284;stroke-width:2.5;stroke-linecap:round;stroke-linejoin:round;stroke-miterlimit:4;stroke-opacity:1;stroke-dasharray:none" />
  <path
     d="m 11.769068,18.527542 a 0.93220341,0.93220341 0 1 1 -1.8644069,0 0.93220341,0.93220341 0 1 1 1.8644069,0 z"
     transform="matrix(0.45825242,0,0,0.45825242,27.533981,25.509708)"
     id="path3592-5-2"
     style="fill:#808284;fill-opacity:1;stroke:#808284;stroke-width:2.5;stroke-linecap:round;stroke-linejoin:round;stroke-miterlimit:4;stroke-opacity:1;stroke-dasharray:none" />
  <path
     d="m 11.769068,18.527542 a 0.93220341,0.93220341 0 1 1 -1.8644069,0 0.93220341,0.93220341 0 1 1 1.8644069,0 z"
     transform="matrix(0.45825242,0,0,0.45825242,37.533981,25.509708)"
     id="path3592-5-2-9"
     style="fill:#808284;fill-opacity:1;stroke:#808284;stroke-width:2.5;stroke-linecap:round;stroke-linejoin:round;stroke-miterlimit:4;stroke-opacity:1;stroke-dasharray:none" />
  <path
     d="m 27.507733,37.841843 -1.825212,1.825212 0.01934,3.650424 3.615621,0 0,-3.615621 -1.809746,-1.860015 z"
     id="path3794"
     style="fill:#ffffff;fill-opacity:1;stroke:#ffffff;stroke-width:0.36504242px;stroke-linecap:butt;stroke-linejoin:miter;stroke-opacity:1" />
  <text
     x="4.757885"
     y="31.554731"
     id="text3796"
     xml:space="preserve"
     style="font-size:15.19851589px;font-style:normal;font-weight:normal;fill:#808284;fill-opacity:1;stroke:#808284;stroke-width:0.5;stroke-miterlimit:4;stroke-opacity:1;stroke-dasharray:none;font-family:Bitstream Vera Sans"><tspan
       x="4.757885"
       y="31.554731"
       id="tspan3798">-</tspan></text>
  <text
     x="45.072933"
     y="28.75"
     id="text3800"
     xml:space="preserve"
     style="font-size:6.3900156px;font-style:normal;font-weight:normal;fill:#808284;fill-opacity:1;stroke:#808284;stroke-width:0.5;stroke-miterlimit:4;stroke-opacity:1;stroke-dasharray:none;font-family:Bitstream Vera Sans"><tspan
       x="45.072933"
       y="28.75"
       id="tspan3802">+</tspan></text>
</svg>
