<?xml version="1.0" encoding="UTF-8" standalone="no"?>
<!-- Created with Inkscape (http://www.inkscape.org/) -->

<svg
   xmlns:dc="http://purl.org/dc/elements/1.1/"
   xmlns:cc="http://creativecommons.org/ns#"
   xmlns:rdf="http://www.w3.org/1999/02/22-rdf-syntax-ns#"
   xmlns:svg="http://www.w3.org/2000/svg"
   xmlns="http://www.w3.org/2000/svg"
   xmlns:sodipodi="http://sodipodi.sourceforge.net/DTD/sodipodi-0.dtd"
   xmlns:inkscape="http://www.inkscape.org/namespaces/inkscape"
   version="1.1"
   width="55"
   height="55"
   id="svg2"
   inkscape:version="0.47 r22583"
   sodipodi:docname="bracketing_3.svg">
  <metadata
     id="metadata20">
    <rdf:RDF>
      <cc:Work
         rdf:about="">
        <dc:format>image/svg+xml</dc:format>
        <dc:type
           rdf:resource="http://purl.org/dc/dcmitype/StillImage" />
      </cc:Work>
    </rdf:RDF>
  </metadata>
  <sodipodi:namedview
     pagecolor="#ffffff"
     bordercolor="#666666"
     borderopacity="1"
     objecttolerance="10"
     gridtolerance="10"
     guidetolerance="10"
     inkscape:pageopacity="0"
     inkscape:pageshadow="2"
     inkscape:window-width="1280"
     inkscape:window-height="721"
     id="namedview18"
     showgrid="false"
     inkscape:zoom="4.2909091"
     inkscape:cx="-15.03178"
     inkscape:cy="27.033898"
     inkscape:window-x="0"
     inkscape:window-y="27"
     inkscape:window-maximized="1"
     inkscape:current-layer="svg2" />
  <defs
     id="defs4">
    <inkscape:perspective
       sodipodi:type="inkscape:persp3d"
       inkscape:vp_x="0 : 27.5 : 1"
       inkscape:vp_y="0 : 1000 : 0"
       inkscape:vp_z="55 : 27.5 : 1"
       inkscape:persp3d-origin="27.5 : 18.333333 : 1"
       id="perspective22" />
    <inkscape:perspective
       id="perspective3673"
       inkscape:persp3d-origin="0.5 : 0.33333333 : 1"
       inkscape:vp_z="1 : 0.5 : 1"
       inkscape:vp_y="0 : 1000 : 0"
       inkscape:vp_x="0 : 0.5 : 1"
       sodipodi:type="inkscape:persp3d" />
    <inkscape:perspective
       id="perspective3695"
       inkscape:persp3d-origin="0.5 : 0.33333333 : 1"
       inkscape:vp_z="1 : 0.5 : 1"
       inkscape:vp_y="0 : 1000 : 0"
       inkscape:vp_x="0 : 0.5 : 1"
       sodipodi:type="inkscape:persp3d" />
  </defs>
  <path
     d="m 11.769068,18.527542 a 0.93220341,0.93220341 0 1 1 -1.8644069,0 0.93220341,0.93220341 0 1 1 1.8644069,0 z"
     transform="matrix(0.91650485,0,0,0.91650485,17.567961,16.019417)"
     id="path3592"
     style="fill:#ffffff;fill-opacity:1;stroke:#ffffff;stroke-width:2.5;stroke-linecap:round;stroke-linejoin:round;stroke-miterlimit:4;stroke-opacity:1;stroke-dasharray:none" />
  <path
     d="m 11.769068,18.527542 a 0.93220341,0.93220341 0 1 1 -1.8644069,0 0.93220341,0.93220341 0 1 1 1.8644069,0 z"
     transform="matrix(0.91650485,0,0,0.91650485,7.5679612,16.019418)"
     id="path3592-3"
     style="fill:#ffffff;fill-opacity:1;stroke:#ffffff;stroke-width:2.50000000000000000;stroke-linecap:round;stroke-linejoin:round;stroke-miterlimit:4;stroke-opacity:1;stroke-dasharray:none" />
  <path
     d="m 11.769068,18.527542 a 0.93220341,0.93220341 0 1 1 -1.8644069,0 0.93220341,0.93220341 0 1 1 1.8644069,0 z"
     transform="matrix(0.91650485,0,0,0.91650485,27.567961,16.019417)"
     id="path3592-1"
     style="fill:#ffffff;fill-opacity:1;stroke:#ffffff;stroke-width:2.50000000000000000;stroke-linecap:round;stroke-linejoin:round;stroke-miterlimit:4;stroke-opacity:1;stroke-dasharray:none" />
  <path
     d="m 11.769068,18.527542 a 0.93220341,0.93220341 0 1 1 -1.8644069,0 0.93220341,0.93220341 0 1 1 1.8644069,0 z"
     transform="matrix(0.91650485,0,0,0.91650485,-2.4320388,16.019418)"
     id="path3592-3-5"
     style="fill:#808284;fill-opacity:1;stroke:#808284;stroke-width:2.5;stroke-linecap:round;stroke-linejoin:round;stroke-miterlimit:4;stroke-opacity:1;stroke-dasharray:none" />
  <path
     d="m 11.769068,18.527542 a 0.93220341,0.93220341 0 1 1 -1.8644069,0 0.93220341,0.93220341 0 1 1 1.8644069,0 z"
     transform="matrix(0.91650485,0,0,0.91650485,37.567961,16.019417)"
     id="path3592-1-4"
     style="fill:#808284;fill-opacity:1;stroke:#808284;stroke-width:2.5;stroke-linecap:round;stroke-linejoin:round;stroke-miterlimit:4;stroke-opacity:1;stroke-dasharray:none" />
  <path
     d="m 11.769068,18.527542 a 0.93220341,0.93220341 0 1 1 -1.8644069,0 0.93220341,0.93220341 0 1 1 1.8644069,0 z"
     transform="matrix(0.45825242,0,0,0.45825242,17.533981,25.509708)"
     id="path3592-5"
     style="fill:#808284;fill-opacity:1;stroke:#808284;stroke-width:2.5;stroke-linecap:round;stroke-linejoin:round;stroke-miterlimit:4;stroke-opacity:1;stroke-dasharray:none" />
  <path
     d="m 11.769068,18.527542 a 0.93220341,0.93220341 0 1 1 -1.8644069,0 0.93220341,0.93220341 0 1 1 1.8644069,0 z"
     transform="matrix(0.45825242,0,0,0.45825242,7.5339806,25.509708)"
     id="path3592-5-4"
     style="fill:#808284;fill-opacity:1;stroke:#808284;stroke-width:2.5;stroke-linecap:round;stroke-linejoin:round;stroke-miterlimit:4;stroke-opacity:1;stroke-dasharray:none" />
  <path
     d="m 11.769068,18.527542 a 0.93220341,0.93220341 0 1 1 -1.8644069,0 0.93220341,0.93220341 0 1 1 1.8644069,0 z"
     transform="matrix(0.45825242,0,0,0.45825242,27.533981,25.509708)"
     id="path3592-5-2"
     style="fill:#808284;fill-opacity:1;stroke:#808284;stroke-width:2.5;stroke-linecap:round;stroke-linejoin:round;stroke-miterlimit:4;stroke-opacity:1;stroke-dasharray:none" />
  <path
     d="m 11.769068,18.527542 a 0.93220341,0.93220341 0 1 1 -1.8644069,0 0.93220341,0.93220341 0 1 1 1.8644069,0 z"
     transform="matrix(0.45825242,0,0,0.45825242,37.533981,25.509708)"
     id="path3592-5-2-9"
     style="fill:#808284;fill-opacity:1;stroke:#808284;stroke-width:2.5;stroke-linecap:round;stroke-linejoin:round;stroke-miterlimit:4;stroke-opacity:1;stroke-dasharray:none" />
  <path
     d="m 27.507733,37.841843 -1.825212,1.825212 0.01934,3.650424 3.615621,0 0,-3.615621 -1.809746,-1.860015 z"
     id="path3794"
     style="fill:#ffffff;fill-opacity:1;stroke:#ffffff;stroke-width:0.36504242px;stroke-linecap:butt;stroke-linejoin:miter;stroke-opacity:1" />
  <text
     x="4.757885"
     y="31.554731"
     id="text3796"
     xml:space="preserve"
     style="font-size:15.19851589px;font-style:normal;font-weight:normal;fill:#808284;fill-opacity:1;stroke:#808284;stroke-width:0.5;stroke-miterlimit:4;stroke-opacity:1;stroke-dasharray:none;font-family:Bitstream Vera Sans"><tspan
       x="4.757885"
       y="31.554731"
       id="tspan3798">-</tspan></text>
  <text
     x="45.072933"
     y="28.75"
     id="text3800"
     xml:space="preserve"
     style="font-size:6.3900156px;font-style:normal;font-weight:normal;fill:#808284;fill-opacity:1;stroke:#808284;stroke-width:0.5;stroke-miterlimit:4;stroke-opacity:1;stroke-dasharray:none;font-family:Bitstream Vera Sans"><tspan
       x="45.072933"
       y="28.75"
       id="tspan3802">+</tspan></text>
  <path
     d="m 17.507733,37.841843 -1.825212,1.825212 0.01934,3.650424 3.615621,0 0,-3.615621 -1.809746,-1.860015 z"
     id="path3794-8"
     style="fill:#ffffff;fill-opacity:1;stroke:#ffffff;stroke-width:0.36504242px;stroke-linecap:butt;stroke-linejoin:miter;stroke-opacity:1" />
  <path
     d="m 37.507733,37.841843 -1.825212,1.825212 0.01934,3.650424 3.615621,0 0,-3.615621 -1.809746,-1.860015 z"
     id="path3794-5"
     style="fill:#ffffff;fill-opacity:1;stroke:#ffffff;stroke-width:0.36504242px;stroke-linecap:butt;stroke-linejoin:miter;stroke-opacity:1" />
</svg>
