<?xml version="1.0" encoding="UTF-8" standalone="no"?>
<!-- Created with Inkscape (http://www.inkscape.org/) -->

<svg
   xmlns:svg="http://www.w3.org/2000/svg"
   xmlns="http://www.w3.org/2000/svg"
   version="1.1"
   width="55"
   height="55"
   id="svg2">
  <defs
     id="defs4" />
  <g
     transform="translate(0,-997.36218)"
     id="layer1">
    <path
       d="m 38,25 a 10,10 0 1 1 -20,0 10,10 0 1 1 20,0 z"
       transform="translate(-0.5,999.86226)"
       id="path3678"
       style="fill:#ffffff;fill-opacity:1;stroke:#ffffff;stroke-width:0.5;stroke-linecap:butt;stroke-linejoin:miter;stroke-miterlimit:4;stroke-opacity:1;stroke-dasharray:none" />
    <path
       d="m 27.658002,1010.8623 c 0,-10 0,-10 0,-10"
       id="path3706"
       style="fill:none;stroke:#ffffff;stroke-width:3;stroke-linecap:round;stroke-linejoin:miter;stroke-miterlimit:1;stroke-opacity:1;stroke-dasharray:none" />
    <path
       d="m 41.5,1024.8623 c 10,0 10,0 10,0"
       id="path3708"
       style="fill:none;stroke:#ffffff;stroke-width:3;stroke-linecap:round;stroke-linejoin:miter;stroke-miterlimit:1;stroke-opacity:1;stroke-dasharray:none" />
    <path
       d="m 27.510032,1038.8723 c 0,9.9799 0,9.9799 0,9.9799"
       id="path3710"
       style="fill:none;stroke:#ffffff;stroke-width:3;stroke-linecap:round;stroke-linejoin:miter;stroke-miterlimit:1;stroke-opacity:1;stroke-dasharray:none" />
    <path
       d="m 13.5,1024.8623 c -10,0 -10,0 -10,0"
       id="path3712"
       style="fill:none;stroke:#ffffff;stroke-width:3;stroke-linecap:round;stroke-linejoin:miter;stroke-miterlimit:1;stroke-opacity:1;stroke-dasharray:none" />
    <path
       d="m 17.805388,1014.8623 c -7.071068,-7.071 -7.071068,-7.071 -7.071068,-7.071"
       id="path3706-3"
       style="fill:none;stroke:#ffffff;stroke-width:3;stroke-linecap:round;stroke-linejoin:miter;stroke-miterlimit:1;stroke-opacity:1;stroke-dasharray:none" />
    <path
       d="m 44.392677,1041.8623 c -7.071068,-7.071 -7.071068,-7.071 -7.071068,-7.071"
       id="path3706-3-8"
       style="fill:none;stroke:#ffffff;stroke-width:3;stroke-linecap:round;stroke-linejoin:miter;stroke-miterlimit:1;stroke-opacity:1;stroke-dasharray:none" />
    <path
       d="m 37.589466,1014.8623 c 7.071068,-7.071 7.071068,-7.071 7.071068,-7.071"
       id="path3706-3-8-7"
       style="fill:none;stroke:#ffffff;stroke-width:3;stroke-linecap:round;stroke-linejoin:miter;stroke-miterlimit:1;stroke-opacity:1;stroke-dasharray:none" />
    <path
       d="m 10.768037,1041.8623 c 7.071068,-7.071 7.071068,-7.071 7.071068,-7.071"
       id="path3706-3-8-7-2"
       style="fill:none;stroke:#ffffff;stroke-width:3;stroke-linecap:round;stroke-linejoin:miter;stroke-miterlimit:1;stroke-opacity:1;stroke-dasharray:none" />
  </g>
</svg>
