<?xml version="1.0" encoding="UTF-8" standalone="no"?>
<!-- Created with Inkscape (http://www.inkscape.org/) -->

<svg
   xmlns:svg="http://www.w3.org/2000/svg"
   xmlns="http://www.w3.org/2000/svg"
   version="1.0"
   width="55"
   height="55"
   id="svg2">
  <defs
     id="defs4" />
  <g
     transform="matrix(3,0,0,3,0,-95)"
     id="layer1" />
  <g
     transform="matrix(0.55100874,0,0,0.55100874,-14.815203,-14.153443)"
     id="g2827"
     style="fill:none;stroke:#000000;stroke-width:4.53713322;stroke-linecap:butt;stroke-linejoin:round;stroke-miterlimit:4;stroke-opacity:1;stroke-dasharray:none">
    <path
       d="m 67.814175,94.5 0,-39"
       id="path1325"
       style="fill:none;stroke:#ffffff;stroke-width:4.53713322;stroke-linecap:butt;stroke-linejoin:round;stroke-miterlimit:4;stroke-opacity:1;stroke-dasharray:none" />
    <path
       d="m 116.40751,75.000015 c 0,17.550387 -14.2274,31.777785 -31.777789,31.777785 -17.550386,0 -31.777785,-14.227398 -31.777785,-31.777785 0,-17.550387 14.227399,-31.777785 31.777785,-31.777785 17.550389,0 31.777789,14.227398 31.777789,31.777785 l 0,0 z"
       id="path2202"
       style="fill:none;stroke:#ffffff;stroke-width:4.53713322;stroke-linecap:butt;stroke-linejoin:round;stroke-miterlimit:4;stroke-opacity:1;stroke-dasharray:none;stroke-dashoffset:0" />
    <path
       d="m 93.629706,116.42908 0,-23.42908 -18,0 0,-36 18,0 0,-22.466169"
       id="path4511"
       style="fill:none;stroke:#ffffff;stroke-width:4.53713322;stroke-linecap:round;stroke-linejoin:round;stroke-miterlimit:4;stroke-opacity:1;stroke-dasharray:none" />
    <path
       d="M 40.952532,75 67.5,75"
       id="path1891"
       style="fill:none;stroke:#ffffff;stroke-width:4.53713322;stroke-linecap:round;stroke-linejoin:round;stroke-miterlimit:4;stroke-opacity:1;stroke-dasharray:none" />
    <path
       d="m 75.629706,51 0,48"
       id="path1995"
       style="fill:none;stroke:#ffffff;stroke-width:4.53713322;stroke-linecap:butt;stroke-linejoin:round;stroke-miterlimit:4;stroke-opacity:1;stroke-dasharray:none" />
  </g>
</svg>
