<?xml version="1.0" encoding="UTF-8" standalone="no"?>
<!-- Created with Inkscape (http://www.inkscape.org/) -->

<svg
   xmlns:dc="http://purl.org/dc/elements/1.1/"
   xmlns:cc="http://creativecommons.org/ns#"
   xmlns:rdf="http://www.w3.org/1999/02/22-rdf-syntax-ns#"
   xmlns:svg="http://www.w3.org/2000/svg"
   xmlns="http://www.w3.org/2000/svg"
   version="1.1"
   width="55"
   height="55"
   viewBox="0 0 55 55"
   id="Layer_1"
   xml:space="preserve"><metadata
   id="metadata36"><rdf:RDF><cc:Work
       rdf:about=""><dc:format>image/svg+xml</dc:format><dc:type
         rdf:resource="http://purl.org/dc/dcmitype/StillImage" /><dc:title></dc:title></cc:Work></rdf:RDF></metadata><defs
   id="defs34" />
<g
   id="document-save"
   style="display:block">
	<g
   id="g4">
		<g
   transform="matrix(0.44708057,0,0,0.44708057,37.600149,-0.69023309)"
   id="g6"
   style="fill:none;stroke:#ffffff;stroke-width:3.35509992;stroke-miterlimit:4;stroke-opacity:1;stroke-dasharray:none">
			<g
   id="g8"
   style="fill:none;stroke:#ffffff;stroke-width:3.35509992;stroke-miterlimit:4;stroke-opacity:1;stroke-dasharray:none">
				<path
   d="m 6.736,49.002 h 24.52 c 2.225,0 3.439,-1.447 3.439,-3.441 v -27.28 c 0,-1.73 -1.732,-3.441 -3.439,-3.441 h -4.389"
   id="path10"
   style="fill:none;stroke:#ffffff;stroke-width:3.35509992;stroke-linecap:round;stroke-linejoin:round;stroke-miterlimit:4;stroke-opacity:1;stroke-dasharray:none" />
			</g>
		</g>
		<g
   transform="matrix(0.44708057,0,0,0.44708057,37.600149,-0.69023309)"
   id="g12"
   style="fill:none;stroke:#ffffff;stroke-width:3.35509992;stroke-miterlimit:4;stroke-opacity:1;stroke-dasharray:none">
			<g
   id="g14"
   style="fill:none;stroke:#ffffff;stroke-width:3.35509992;stroke-miterlimit:4;stroke-opacity:1;stroke-dasharray:none">
				<path
   d="m 26.867,38.592 c 0,1.836 -1.345,3.201 -3.441,4.047 L 6.736,49.002 V 14.84 l 16.69,-8.599 c 2.228,-0.394 3.441,0.84 3.441,2.834 v 29.517 z"
   id="path16"
   style="fill:none;stroke:#ffffff;stroke-width:3.35509992;stroke-linecap:round;stroke-linejoin:round;stroke-miterlimit:4;stroke-opacity:1;stroke-dasharray:none" />
			</g>
		</g>
		<path
   d="m 41.813436,18.358529 c 0,0 -0.604006,-0.242765 -1.208012,-0.242765 -0.604005,0 -1.208458,0.242765 -1.208458,0.242765"
   id="path18"
   style="fill:none;stroke:#ffffff;stroke-width:1.5;stroke-linecap:round;stroke-linejoin:round;stroke-miterlimit:4;stroke-opacity:1;stroke-dasharray:none" />
		<path
   d="m 41.813436,13.619027 c 0,0 -0.553933,-0.242764 -1.258532,-0.242764 -0.705045,0 -1.157938,0.242764 -1.157938,0.242764"
   id="path20"
   style="fill:none;stroke:#ffffff;stroke-width:1.5;stroke-linecap:round;stroke-linejoin:round;stroke-miterlimit:4;stroke-opacity:1;stroke-dasharray:none" />
		<path
   d="m 41.813436,9.00158 c 0,0 -0.502965,-0.2432128 -1.308605,-0.2432128 -0.805639,0 -1.107865,0.2432128 -1.107865,0.2432128"
   id="path22"
   style="fill:none;stroke:#ffffff;stroke-width:1.5;stroke-linecap:round;stroke-linejoin:round;stroke-miterlimit:4;stroke-opacity:1;stroke-dasharray:none" />
		
		<line
   x1="43.505634"
   x2="43.505634"
   y1="20.113768"
   y2="4.4534302"
   id="line24"
   style="fill:none;stroke:#ffffff;stroke-width:1.5;stroke-linecap:round;stroke-linejoin:round;stroke-miterlimit:4;stroke-opacity:1;stroke-dasharray:none" />
		
		<g
   transform="matrix(-0.54160165,0,0,-0.54160165,60.769936,31.653252)"
   id="g26">
			<line
   x1="41.169998"
   x2="52.441002"
   y1="16.188"
   y2="4.9169998"
   id="line28"
   style="fill:none;stroke:#ffffff;stroke-width:3.5;stroke-linecap:round;stroke-linejoin:round;stroke-opacity:1" />
			<polyline
   points="     51.562,15.306 41.17,16.188 42.053,5.794    "
   id="polyline30"
   style="fill:none;stroke:#ffffff;stroke-width:3.5;stroke-linecap:round;stroke-linejoin:round;stroke-opacity:1" />
		</g>
	<g
   transform="matrix(0.73392911,0,0,0.73392911,-1.3417578,18.698668)"
   id="g7"
   style="fill:none;stroke:#000000;stroke-opacity:1"><polygon
     points="5.962,43.944 48.788,43.944 48.788,23.002 36.849,11.058 5.962,11.058 "
     id="polygon9"
     style="fill:none;stroke:#ffffff;stroke-width:3.5;stroke-opacity:1" /><polyline
     style="fill:none;stroke:#ffffff;stroke-width:3.5;stroke-opacity:1"
     id="polyline11"
     points="36.849,11.058 36.849,23.002 48.788,23.002    " /></g><path
   d="m 18.844227,35.830042 c -4.59293,0 -8.418901,4.580453 -8.418901,4.580453 0,0 3.825971,4.602468 8.418901,4.599533 4.59366,-0.0036 8.421836,-4.604672 8.421836,-4.604672 0,0 -3.828176,-4.578249 -8.421836,-4.575314 z m 0,7.810473 c -1.778311,0 -3.219748,-1.442903 -3.219748,-3.221213 0,-1.775375 1.441437,-3.220481 3.219748,-3.220481 1.776107,0 3.219011,1.445106 3.219011,3.220481 0,1.779043 -1.442904,3.221213 -3.219011,3.221213 z"
   id="path13"
   style="fill:#ffffff;fill-opacity:0.94117647;stroke:none;display:inline" /><circle
   cx="27.504"
   cy="29.597"
   r="1.9910001"
   transform="matrix(0.73392911,0,0,0.73392911,-1.3417578,18.698668)"
   id="circle15"
   style="fill:#ffffff;fill-opacity:1;display:inline" /></g>
</g>
</svg>
